ISO-10303-21;
HEADER;
FILE_DESCRIPTION (( 'STEP AP214' ),
    '1' );
FILE_NAME ('DSN2.STEP',
    '2026-04-20T04:20:48',
    ( '' ),
    ( '' ),
    'SwSTEP 2.0',
    'SolidWorks 2026',
    '' );
FILE_SCHEMA (( 'AUTOMOTIVE_DESIGN' ));
ENDSEC;

DATA;
#1 = CARTESIAN_POINT ( 'NONE',  ( -0.4500000000000001776, 0.2999999999999999889, -0.2500000000000000000 ) ) ;
#2 = DIRECTION ( 'NONE',  ( 0.000000000000000000, 0.000000000000000000, -1.000000000000000000 ) ) ;
#3 = PRESENTATION_STYLE_ASSIGNMENT (( #377 ) ) ;
#4 = CARTESIAN_POINT ( 'NONE',  ( -0.4500000000000001221, 0.2999999999999999889, 0.2500000000000000000 ) ) ;
#5 = DIRECTION ( 'NONE',  ( -1.000000000000000000, -0.000000000000000000, -0.000000000000000000 ) ) ;
#6 = VECTOR ( 'NONE', #373, 1000.000000000000000 ) ;
#7 = PLANE ( 'NONE',  #70 ) ;
#8 = ORIENTED_EDGE ( 'NONE', *, *, #443, .F. ) ;
#9 = STYLED_ITEM ( 'NONE', ( #189 ), #144 ) ;
#10 = SURFACE_STYLE_FILL_AREA ( #338 ) ;
#11 = SURFACE_SIDE_STYLE ('',( #78 ) ) ;
#12 = EDGE_CURVE ( 'NONE', #245, #422, #61, .T. ) ;
#13 = PRESENTATION_STYLE_ASSIGNMENT (( #343 ) ) ;
#14 = PRODUCT_RELATED_PRODUCT_CATEGORY ( 'part', '', ( #254 ) ) ;
#15 = DIRECTION ( 'NONE',  ( 0.000000000000000000, 0.000000000000000000, -1.000000000000000000 ) ) ;
#16 = UNCERTAINTY_MEASURE_WITH_UNIT (LENGTH_MEASURE( 1.000000000000000082E-05 ), #279, 'distance_accuracy_value', 'NONE');
#17 = DIRECTION ( 'NONE',  ( -0.000000000000000000, -0.000000000000000000, -1.000000000000000000 ) ) ;
#18 = SURFACE_SIDE_STYLE ('',( #381 ) ) ;
#19 = VECTOR ( 'NONE', #17, 1000.000000000000000 ) ;
#20 = DIRECTION ( 'NONE',  ( -1.084202172485504434E-16, 0.000000000000000000, -1.000000000000000000 ) ) ;
#21 = PRODUCT_DEFINITION_CONTEXT ( 'detailed design', #88, 'design' ) ;
#22 = EDGE_LOOP ( 'NONE', ( #253, #352, #363, #26 ) ) ;
#23 = STYLED_ITEM ( 'NONE', ( #227 ), #188 ) ;
#24 =( LENGTH_UNIT ( ) NAMED_UNIT ( * ) SI_UNIT ( .MILLI., .METRE. ) );
#25 =( NAMED_UNIT ( * ) PLANE_ANGLE_UNIT ( ) SI_UNIT ( $, .RADIAN. ) );
#26 = ORIENTED_EDGE ( 'NONE', *, *, #51, .T. ) ;
#27 = COLOUR_RGB ( '',0.7529411764705882248, 0.7529411764705882248, 0.7529411764705882248 ) ;
#28 = EDGE_CURVE ( 'NONE', #135, #177, #326, .T. ) ;
#29 = DIRECTION ( 'NONE',  ( 0.000000000000000000, 1.000000000000000000, 0.000000000000000000 ) ) ;
#30 = EDGE_LOOP ( 'NONE', ( #120, #314, #395, #387, #84, #140, #44, #361 ) ) ;
#31 = FILL_AREA_STYLE ('',( #137 ) ) ;
#32 = ORIENTED_EDGE ( 'NONE', *, *, #260, .F. ) ;
#33 = AXIS2_PLACEMENT_3D ( 'NONE', #425, #57, #214 ) ;
#34 = ORIENTED_EDGE ( 'NONE', *, *, #233, .F. ) ;
#35 = DIRECTION ( 'NONE',  ( 0.000000000000000000, 0.000000000000000000, -1.000000000000000000 ) ) ;
#36 = VECTOR ( 'NONE', #424, 1000.000000000000000 ) ;
#37 = CARTESIAN_POINT ( 'NONE',  ( -0.2500000000000001665, 0.3009999999999999898, 0.2500000000000000000 ) ) ;
#38 =( NAMED_UNIT ( * ) SI_UNIT ( $, .STERADIAN. ) SOLID_ANGLE_UNIT ( ) );
#39 = DIRECTION ( 'NONE',  ( 1.000000000000000000, 0.000000000000000000, 0.000000000000000000 ) ) ;
#40 = LINE ( 'NONE', #196, #281 ) ;
#41 = DIRECTION ( 'NONE',  ( 1.000000000000000000, -0.000000000000000000, 0.000000000000000000 ) ) ;
#42 = LINE ( 'NONE', #327, #339 ) ;
#43 = LINE ( 'NONE', #151, #148 ) ;
#44 = ORIENTED_EDGE ( 'NONE', *, *, #28, .F. ) ;
#45 = FILL_AREA_STYLE_COLOUR ( '', #349 ) ;
#46 = PRESENTATION_LAYER_ASSIGNMENT (  '', '', ( #362 ) ) ;
#47 = DIRECTION ( 'NONE',  ( -1.000000000000000000, 0.000000000000000000, 0.000000000000000000 ) ) ;
#48 =( GEOMETRIC_REPRESENTATION_CONTEXT ( 3 ) GLOBAL_UNCERTAINTY_ASSIGNED_CONTEXT ( ( #197 ) ) GLOBAL_UNIT_ASSIGNED_CONTEXT ( ( #274, #446, #243 ) ) REPRESENTATION_CONTEXT ( 'NONE', 'WORKASPACE' ) );
#49 = VECTOR ( 'NONE', #365, 1000.000000000000000 ) ;
#50 = PLANE ( 'NONE',  #208 ) ;
#51 = EDGE_CURVE ( 'NONE', #355, #251, #222, .T. ) ;
#52 = SURFACE_SIDE_STYLE ('',( #165 ) ) ;
#53 = UNCERTAINTY_MEASURE_WITH_UNIT (LENGTH_MEASURE( 1.000000000000000082E-05 ), #24, 'distance_accuracy_value', 'NONE');
#54 = CARTESIAN_POINT ( 'NONE',  ( -0.4500000000000001776, 0.2999999999999999889, -0.2500000000000000000 ) ) ;
#55 = CARTESIAN_POINT ( 'NONE',  ( -0.4500000000000001221, 0.2999999999999999889, 0.2500000000000000000 ) ) ;
#56 = DIRECTION ( 'NONE',  ( 0.000000000000000000, 1.000000000000000000, 0.000000000000000000 ) ) ;
#57 = DIRECTION ( 'NONE',  ( 0.000000000000000000, 1.000000000000000000, 0.000000000000000000 ) ) ;
#58 = ORIENTED_EDGE ( 'NONE', *, *, #146, .F. ) ;
#59 = DIRECTION ( 'NONE',  ( -1.000000000000000000, 0.000000000000000000, 0.000000000000000000 ) ) ;
#60 = EDGE_CURVE ( 'NONE', #293, #177, #40, .T. ) ;
#61 = LINE ( 'NONE', #213, #36 ) ;
#62 = MECHANICAL_DESIGN_GEOMETRIC_PRESENTATION_REPRESENTATION (  '', ( #212 ), #48 ) ;
#63 = VECTOR ( 'NONE', #244, 1000.000000000000000 ) ;
#64 =( LENGTH_UNIT ( ) NAMED_UNIT ( * ) SI_UNIT ( .MILLI., .METRE. ) );
#65 = ORIENTED_EDGE ( 'NONE', *, *, #360, .T. ) ;
#66 = DIRECTION ( 'NONE',  ( 1.000000000000000000, 0.000000000000000000, -0.000000000000000000 ) ) ;
#67 = EDGE_LOOP ( 'NONE', ( #117, #464, #32, #138 ) ) ;
#68 = APPLICATION_PROTOCOL_DEFINITION ( 'draft international standard', 'automotive_design', 1998, #88 ) ;
#69 = PRESENTATION_LAYER_ASSIGNMENT (  '', '', ( #23 ) ) ;
#70 = AXIS2_PLACEMENT_3D ( 'NONE', #228, #47, #405 ) ;
#71 = VERTEX_POINT ( 'NONE', #37 ) ;
#72 = DIRECTION ( 'NONE',  ( 0.000000000000000000, 0.000000000000000000, 1.000000000000000000 ) ) ;
#73 = VECTOR ( 'NONE', #221, 1000.000000000000000 ) ;
#74 = FILL_AREA_STYLE ('',( #150 ) ) ;
#75 = SURFACE_SIDE_STYLE ('',( #402 ) ) ;
#76 = CARTESIAN_POINT ( 'NONE',  ( 0.4499999999999998446, 0.2999999999999999889, -0.2500000000000000000 ) ) ;
#77 = EDGE_CURVE ( 'NONE', #319, #71, #186, .T. ) ;
#78 = SURFACE_STYLE_FILL_AREA ( #301 ) ;
#79 = SURFACE_STYLE_USAGE ( .BOTH. , #75 ) ;
#80 = PRESENTATION_LAYER_ASSIGNMENT (  '', '', ( #292 ) ) ;
#81 = PLANE ( 'NONE',  #126 ) ;
#82 =( NAMED_UNIT ( * ) SI_UNIT ( $, .STERADIAN. ) SOLID_ANGLE_UNIT ( ) );
#83 =( NAMED_UNIT ( * ) SI_UNIT ( $, .STERADIAN. ) SOLID_ANGLE_UNIT ( ) );
#84 = ORIENTED_EDGE ( 'NONE', *, *, #124, .F. ) ;
#85 = CARTESIAN_POINT ( 'NONE',  ( 0.4499999999999998446, 0.000000000000000000, -0.2500000000000000000 ) ) ;
#86 =( NAMED_UNIT ( * ) PLANE_ANGLE_UNIT ( ) SI_UNIT ( $, .RADIAN. ) );
#87 = CARTESIAN_POINT ( 'NONE',  ( -0.4500000000000001776, 0.2999999999999999889, -0.2500000000000000000 ) ) ;
#88 = APPLICATION_CONTEXT ( 'automotive_design' ) ;
#89 = SURFACE_STYLE_USAGE ( .BOTH. , #283 ) ;
#90 = SURFACE_STYLE_USAGE ( .BOTH. , #52 ) ;
#91 = CARTESIAN_POINT ( 'NONE',  ( -0.2500000000000001665, 0.3009999999999999898, 0.2500000000000000000 ) ) ;
#92 = CARTESIAN_POINT ( 'NONE',  ( 0.4499999999999998446, 0.2999999999999999889, 0.2500000000000000000 ) ) ;
#93 = VECTOR ( 'NONE', #262, 1000.000000000000000 ) ;
#94 =( GEOMETRIC_REPRESENTATION_CONTEXT ( 3 ) GLOBAL_UNCERTAINTY_ASSIGNED_CONTEXT ( ( #53 ) ) GLOBAL_UNIT_ASSIGNED_CONTEXT ( ( #24, #105, #38 ) ) REPRESENTATION_CONTEXT ( 'NONE', 'WORKASPACE' ) );
#95 = ORIENTED_EDGE ( 'NONE', *, *, #443, .T. ) ;
#96 = EDGE_CURVE ( 'NONE', #157, #355, #118, .T. ) ;
#97 = CARTESIAN_POINT ( 'NONE',  ( 0.4499999999999998446, 0.2999999999999999889, -0.2500000000000000000 ) ) ;
#98 = LINE ( 'NONE', #441, #6 ) ;
#99 = SHAPE_DEFINITION_REPRESENTATION ( #216, #378 ) ;
#100 = ORIENTED_EDGE ( 'NONE', *, *, #246, .F. ) ;
#101 = PRESENTATION_LAYER_ASSIGNMENT (  '', '', ( #195 ) ) ;
#102 = CARTESIAN_POINT ( 'NONE',  ( -0.3500000000000001443, 0.3009999999999999898, 0.2500000000000000000 ) ) ;
#103 = ORIENTED_EDGE ( 'NONE', *, *, #127, .T. ) ;
#104 = ORIENTED_EDGE ( 'NONE', *, *, #413, .F. ) ;
#105 =( NAMED_UNIT ( * ) PLANE_ANGLE_UNIT ( ) SI_UNIT ( $, .RADIAN. ) );
#106 = MECHANICAL_DESIGN_GEOMETRIC_PRESENTATION_REPRESENTATION (  '', ( #292 ), #239 ) ;
#107 = DIRECTION ( 'NONE',  ( 0.000000000000000000, 0.000000000000000000, -1.000000000000000000 ) ) ;
#108 = DIRECTION ( 'NONE',  ( 1.000000000000000000, 0.000000000000000000, 0.000000000000000000 ) ) ;
#109 = PRESENTATION_LAYER_ASSIGNMENT (  '', '', ( #212 ) ) ;
#110 = PRESENTATION_LAYER_ASSIGNMENT (  '', '', ( #9 ) ) ;
#111 =( NAMED_UNIT ( * ) SI_UNIT ( $, .STERADIAN. ) SOLID_ANGLE_UNIT ( ) );
#112 = EDGE_CURVE ( 'NONE', #71, #394, #469, .T. ) ;
#113 = LINE ( 'NONE', #76, #234 ) ;
#114 = FILL_AREA_STYLE ('',( #433 ) ) ;
#115 = FILL_AREA_STYLE_COLOUR ( '', #27 ) ;
#116 =( GEOMETRIC_REPRESENTATION_CONTEXT ( 3 ) GLOBAL_UNCERTAINTY_ASSIGNED_CONTEXT ( ( #129 ) ) GLOBAL_UNIT_ASSIGNED_CONTEXT ( ( #450, #356, #136 ) ) REPRESENTATION_CONTEXT ( 'NONE', 'WORKASPACE' ) );
#117 = ORIENTED_EDGE ( 'NONE', *, *, #382, .T. ) ;
#118 = LINE ( 'NONE', #224, #183 ) ;
#119 = FILL_AREA_STYLE_COLOUR ( '', #170 ) ;
#120 = ORIENTED_EDGE ( 'NONE', *, *, #461, .T. ) ;
#121 = PLANE ( 'NONE',  #309 ) ;
#122 =( LENGTH_UNIT ( ) NAMED_UNIT ( * ) SI_UNIT ( .MILLI., .METRE. ) );
#123 = FACE_OUTER_BOUND ( 'NONE', #305, .T. ) ;
#124 = EDGE_CURVE ( 'NONE', #293, #282, #303, .T. ) ;
#125 = PRESENTATION_STYLE_ASSIGNMENT (( #164 ) ) ;
#126 = AXIS2_PLACEMENT_3D ( 'NONE', #225, #41, #15 ) ;
#127 = EDGE_CURVE ( 'NONE', #71, #293, #42, .T. ) ;
#128 =( NAMED_UNIT ( * ) PLANE_ANGLE_UNIT ( ) SI_UNIT ( $, .RADIAN. ) );
#129 = UNCERTAINTY_MEASURE_WITH_UNIT (LENGTH_MEASURE( 1.000000000000000082E-05 ), #450, 'distance_accuracy_value', 'NONE');
#130 = PLANE ( 'NONE',  #203 ) ;
#131 = CARTESIAN_POINT ( 'NONE',  ( -0.3500000000000001443, 0.2999999999999999889, -0.2500000000000000000 ) ) ;
#132 =( GEOMETRIC_REPRESENTATION_CONTEXT ( 3 ) GLOBAL_UNCERTAINTY_ASSIGNED_CONTEXT ( ( #308 ) ) GLOBAL_UNIT_ASSIGNED_CONTEXT ( ( #242, #25, #173 ) ) REPRESENTATION_CONTEXT ( 'NONE', 'WORKASPACE' ) );
#133 = CARTESIAN_POINT ( 'NONE',  ( 0.000000000000000000, 0.2999999999999999889, 0.000000000000000000 ) ) ;
#134 = PRESENTATION_STYLE_ASSIGNMENT (( #419 ) ) ;
#135 = VERTEX_POINT ( 'NONE', #265 ) ;
#136 =( NAMED_UNIT ( * ) SI_UNIT ( $, .STERADIAN. ) SOLID_ANGLE_UNIT ( ) );
#137 = FILL_AREA_STYLE_COLOUR ( '', #226 ) ;
#138 = ORIENTED_EDGE ( 'NONE', *, *, #342, .T. ) ;
#139 =( NAMED_UNIT ( * ) PLANE_ANGLE_UNIT ( ) SI_UNIT ( $, .RADIAN. ) );
#140 = ORIENTED_EDGE ( 'NONE', *, *, #60, .T. ) ;
#141 = CARTESIAN_POINT ( 'NONE',  ( -0.4500000000000001776, 0.000000000000000000, -0.2500000000000000000 ) ) ;
#142 = ORIENTED_EDGE ( 'NONE', *, *, #461, .F. ) ;
#143 = ORIENTED_EDGE ( 'NONE', *, *, #60, .F. ) ;
#144 = MANIFOLD_SOLID_BREP ( 'Boss-Extrude2', #219 ) ;
#145 = CARTESIAN_POINT ( 'NONE',  ( -0.2500000000000001665, 0.3009999999999999898, 0.2500000000000000000 ) ) ;
#146 = EDGE_CURVE ( 'NONE', #394, #177, #406, .T. ) ;
#147 = CARTESIAN_POINT ( 'NONE',  ( -0.3500000000000001443, 0.3009999999999999898, 0.2500000000000000000 ) ) ;
#148 = VECTOR ( 'NONE', #298, 1000.000000000000000 ) ;
#149 = PLANE ( 'NONE',  #277 ) ;
#150 = FILL_AREA_STYLE_COLOUR ( '', #435 ) ;
#151 = CARTESIAN_POINT ( 'NONE',  ( -0.3500000000000001443, 0.2999999999999999889, 0.2500000000000000000 ) ) ;
#152 =( GEOMETRIC_REPRESENTATION_CONTEXT ( 3 ) GLOBAL_UNCERTAINTY_ASSIGNED_CONTEXT ( ( #380 ) ) GLOBAL_UNIT_ASSIGNED_CONTEXT ( ( #154, #162, #158 ) ) REPRESENTATION_CONTEXT ( 'NONE', 'WORKASPACE' ) );
#153 = STYLED_ITEM ( 'NONE', ( #191 ), #329 ) ;
#154 =( LENGTH_UNIT ( ) NAMED_UNIT ( * ) SI_UNIT ( .MILLI., .METRE. ) );
#155 = FACE_OUTER_BOUND ( 'NONE', #268, .T. ) ;
#156 = VECTOR ( 'NONE', #371, 1000.000000000000000 ) ;
#157 = VERTEX_POINT ( 'NONE', #258 ) ;
#158 =( NAMED_UNIT ( * ) SI_UNIT ( $, .STERADIAN. ) SOLID_ANGLE_UNIT ( ) );
#159 = SURFACE_STYLE_USAGE ( .BOTH. , #11 ) ;
#160 = CARTESIAN_POINT ( 'NONE',  ( -0.4500000000000001776, 0.000000000000000000, -0.2500000000000000000 ) ) ;
#161 = CARTESIAN_POINT ( 'NONE',  ( 0.4499999999999998446, 0.000000000000000000, 0.2500000000000000000 ) ) ;
#162 =( NAMED_UNIT ( * ) PLANE_ANGLE_UNIT ( ) SI_UNIT ( $, .RADIAN. ) );
#163 = EDGE_CURVE ( 'NONE', #218, #157, #333, .T. ) ;
#164 = SURFACE_STYLE_USAGE ( .BOTH. , #238 ) ;
#165 = SURFACE_STYLE_FILL_AREA ( #383 ) ;
#166 = MECHANICAL_DESIGN_GEOMETRIC_PRESENTATION_REPRESENTATION (  '', ( #391 ), #272 ) ;
#167 = CARTESIAN_POINT ( 'NONE',  ( -0.3500000000000001443, 0.3009999999999999898, 0.2500000000000000000 ) ) ;
#168 = PLANE ( 'NONE',  #437 ) ;
#169 = COLOUR_RGB ( '',0.2509803921568627416, 0.2509803921568627416, 0.2509803921568627416 ) ;
#170 = COLOUR_RGB ( '',0.7529411764705882248, 0.7529411764705882248, 0.7529411764705882248 ) ;
#171 = EDGE_LOOP ( 'NONE', ( #103, #460, #321, #284 ) ) ;
#172 = PRESENTATION_STYLE_ASSIGNMENT (( #89 ) ) ;
#173 =( NAMED_UNIT ( * ) SI_UNIT ( $, .STERADIAN. ) SOLID_ANGLE_UNIT ( ) );
#174 = STYLED_ITEM ( 'NONE', ( #125 ), #423 ) ;
#175 = EDGE_LOOP ( 'NONE', ( #291, #215, #34, #337, #467, #65, #200, #95 ) ) ;
#176 = SURFACE_STYLE_FILL_AREA ( #31 ) ;
#177 = VERTEX_POINT ( 'NONE', #374 ) ;
#178 = CARTESIAN_POINT ( 'NONE',  ( -0.3500000000000001443, 0.3009999999999999898, -0.2500000000000000000 ) ) ;
#179 = ORIENTED_EDGE ( 'NONE', *, *, #246, .T. ) ;
#180 = COLOUR_RGB ( '',0.7529411764705882248, 0.7529411764705882248, 0.7529411764705882248 ) ;
#181 = DIRECTION ( 'NONE',  ( -1.000000000000000000, -0.000000000000000000, -0.000000000000000000 ) ) ;
#182 = ORIENTED_EDGE ( 'NONE', *, *, #297, .T. ) ;
#183 = VECTOR ( 'NONE', #300, 1000.000000000000000 ) ;
#184 = COLOUR_RGB ( '',0.7529411764705882248, 0.7529411764705882248, 0.7529411764705882248 ) ;
#185 = LINE ( 'NONE', #325, #259 ) ;
#186 = LINE ( 'NONE', #147, #317 ) ;
#187 =( LENGTH_UNIT ( ) NAMED_UNIT ( * ) SI_UNIT ( .MILLI., .METRE. ) );
#188 = ADVANCED_FACE ( 'NONE', ( #400 ), #149, .F. ) ;
#189 = PRESENTATION_STYLE_ASSIGNMENT (( #366 ) ) ;
#190 = PRODUCT_DEFINITION ( 'UNKNOWN', '', #465, #21 ) ;
#191 = PRESENTATION_STYLE_ASSIGNMENT (( #393 ) ) ;
#192 =( LENGTH_UNIT ( ) NAMED_UNIT ( * ) SI_UNIT ( .MILLI., .METRE. ) );
#193 = AXIS2_PLACEMENT_3D ( 'NONE', #91, #59, #388 ) ;
#194 =( NAMED_UNIT ( * ) SI_UNIT ( $, .STERADIAN. ) SOLID_ANGLE_UNIT ( ) );
#195 = STYLED_ITEM ( 'NONE', ( #13 ), #270 ) ;
#196 = CARTESIAN_POINT ( 'NONE',  ( -0.2500000000000001665, 0.3009999999999999898, -0.2500000000000000000 ) ) ;
#197 = UNCERTAINTY_MEASURE_WITH_UNIT (LENGTH_MEASURE( 1.000000000000000082E-05 ), #274, 'distance_accuracy_value', 'NONE');
#198 = SURFACE_STYLE_FILL_AREA ( #401 ) ;
#199 = PRESENTATION_LAYER_ASSIGNMENT (  '', '', ( #153 ) ) ;
#200 = ORIENTED_EDGE ( 'NONE', *, *, #51, .F. ) ;
#201 = STYLED_ITEM ( 'NONE', ( #307 ), #368 ) ;
#202 = FILL_AREA_STYLE_COLOUR ( '', #330 ) ;
#203 = AXIS2_PLACEMENT_3D ( 'NONE', #133, #56, #448 ) ;
#204 = SURFACE_SIDE_STYLE ('',( #10 ) ) ;
#205 = EDGE_CURVE ( 'NONE', #157, #269, #379, .T. ) ;
#206 = SURFACE_STYLE_USAGE ( .BOTH. , #18 ) ;
#207 = FILL_AREA_STYLE_COLOUR ( '', #184 ) ;
#208 = AXIS2_PLACEMENT_3D ( 'NONE', #1, #367, #66 ) ;
#209 = ORIENTED_EDGE ( 'NONE', *, *, #12, .F. ) ;
#210 = FILL_AREA_STYLE_COLOUR ( '', #316 ) ;
#211 = SURFACE_STYLE_FILL_AREA ( #252 ) ;
#212 = STYLED_ITEM ( 'NONE', ( #172 ), #407 ) ;
#213 = CARTESIAN_POINT ( 'NONE',  ( -0.4500000000000001221, 0.000000000000000000, 0.2500000000000000000 ) ) ;
#214 = DIRECTION ( 'NONE',  ( 0.000000000000000000, -0.000000000000000000, 1.000000000000000000 ) ) ;
#215 = ORIENTED_EDGE ( 'NONE', *, *, #297, .F. ) ;
#216 = PRODUCT_DEFINITION_SHAPE ( 'NONE', 'NONE',  #190 ) ;
#217 =( NAMED_UNIT ( * ) SI_UNIT ( $, .STERADIAN. ) SOLID_ANGLE_UNIT ( ) );
#218 = VERTEX_POINT ( 'NONE', #131 ) ;
#219 = CLOSED_SHELL ( 'NONE', ( #329, #346, #270, #249, #457, #423, #318, #407, #368, #188 ) ) ;
#220 = MECHANICAL_DESIGN_GEOMETRIC_PRESENTATION_REPRESENTATION (  '', ( #418 ), #94 ) ;
#221 = DIRECTION ( 'NONE',  ( -0.000000000000000000, -1.000000000000000000, -0.000000000000000000 ) ) ;
#222 = LINE ( 'NONE', #4, #49 ) ;
#223 = DIRECTION ( 'NONE',  ( -0.000000000000000000, -1.000000000000000000, -0.000000000000000000 ) ) ;
#224 = CARTESIAN_POINT ( 'NONE',  ( -0.4500000000000001776, 0.2999999999999999889, -0.2500000000000000000 ) ) ;
#225 = CARTESIAN_POINT ( 'NONE',  ( -0.3500000000000001443, 0.3009999999999999898, 0.2500000000000000000 ) ) ;
#226 = COLOUR_RGB ( '',0.7529411764705882248, 0.7529411764705882248, 0.7529411764705882248 ) ;
#227 = PRESENTATION_STYLE_ASSIGNMENT (( #79 ) ) ;
#228 = CARTESIAN_POINT ( 'NONE',  ( 0.4499999999999998446, 0.2999999999999999889, -0.2500000000000000000 ) ) ;
#229 = LINE ( 'NONE', #85, #19 ) ;
#230 = LINE ( 'NONE', #370, #412 ) ;
#231 = VECTOR ( 'NONE', #5, 1000.000000000000000 ) ;
#232 = FACE_OUTER_BOUND ( 'NONE', #30, .T. ) ;
#233 = EDGE_CURVE ( 'NONE', #394, #323, #275, .T. ) ;
#234 = VECTOR ( 'NONE', #223, 1000.000000000000000 ) ;
#235 = FACE_OUTER_BOUND ( 'NONE', #175, .T. ) ;
#236 = CARTESIAN_POINT ( 'NONE',  ( -0.4500000000000001221, 0.000000000000000000, 0.2500000000000000000 ) ) ;
#237 = UNCERTAINTY_MEASURE_WITH_UNIT (LENGTH_MEASURE( 1.000000000000000082E-05 ), #64, 'distance_accuracy_value', 'NONE');
#238 = SURFACE_SIDE_STYLE ('',( #311 ) ) ;
#239 =( GEOMETRIC_REPRESENTATION_CONTEXT ( 3 ) GLOBAL_UNCERTAINTY_ASSIGNED_CONTEXT ( ( #237 ) ) GLOBAL_UNIT_ASSIGNED_CONTEXT ( ( #64, #287, #320 ) ) REPRESENTATION_CONTEXT ( 'NONE', 'WORKASPACE' ) );
#240 = CARTESIAN_POINT ( 'NONE',  ( 0.4499999999999998446, 0.000000000000000000, -0.2500000000000000000 ) ) ;
#241 = PRESENTATION_LAYER_ASSIGNMENT (  '', '', ( #418 ) ) ;
#242 =( LENGTH_UNIT ( ) NAMED_UNIT ( * ) SI_UNIT ( .MILLI., .METRE. ) );
#243 =( NAMED_UNIT ( * ) SI_UNIT ( $, .STERADIAN. ) SOLID_ANGLE_UNIT ( ) );
#244 = DIRECTION ( 'NONE',  ( 1.084202172485504434E-16, 0.000000000000000000, 1.000000000000000000 ) ) ;
#245 = VERTEX_POINT ( 'NONE', #236 ) ;
#246 = EDGE_CURVE ( 'NONE', #422, #420, #229, .T. ) ;
#247 = FACE_OUTER_BOUND ( 'NONE', #22, .T. ) ;
#248 = ORIENTED_EDGE ( 'NONE', *, *, #146, .T. ) ;
#249 = ADVANCED_FACE ( 'NONE', ( #123 ), #121, .F. ) ;
#250 = LINE ( 'NONE', #290, #404 ) ;
#251 = VERTEX_POINT ( 'NONE', #409 ) ;
#252 = FILL_AREA_STYLE ('',( #354 ) ) ;
#253 = ORIENTED_EDGE ( 'NONE', *, *, #382, .F. ) ;
#254 = PRODUCT ( 'DSN2', 'DSN2', '', ( #322 ) ) ;
#255 = EDGE_LOOP ( 'NONE', ( #58, #458, #453, #324 ) ) ;
#256 = AXIS2_PLACEMENT_3D ( 'NONE', #358, #29, #264 ) ;
#257 =( GEOMETRIC_REPRESENTATION_CONTEXT ( 3 ) GLOBAL_UNCERTAINTY_ASSIGNED_CONTEXT ( ( #344 ) ) GLOBAL_UNIT_ASSIGNED_CONTEXT ( ( #122, #411, #194 ) ) REPRESENTATION_CONTEXT ( 'NONE', 'WORKASPACE' ) );
#258 = CARTESIAN_POINT ( 'NONE',  ( -0.4500000000000001776, 0.2999999999999999889, -0.2500000000000000000 ) ) ;
#259 = VECTOR ( 'NONE', #181, 1000.000000000000000 ) ;
#260 = EDGE_CURVE ( 'NONE', #282, #319, #376, .T. ) ;
#261 = CARTESIAN_POINT ( 'NONE',  ( -0.2500000000000001665, 0.2999999999999999889, 0.2500000000000000000 ) ) ;
#262 = DIRECTION ( 'NONE',  ( -1.000000000000000000, -0.000000000000000000, -0.000000000000000000 ) ) ;
#263 = UNCERTAINTY_MEASURE_WITH_UNIT (LENGTH_MEASURE( 1.000000000000000082E-05 ), #442, 'distance_accuracy_value', 'NONE');
#264 = DIRECTION ( 'NONE',  ( 0.000000000000000000, -0.000000000000000000, 1.000000000000000000 ) ) ;
#265 = CARTESIAN_POINT ( 'NONE',  ( 0.4499999999999998446, 0.2999999999999999889, -0.2500000000000000000 ) ) ;
#266 = CARTESIAN_POINT ( 'NONE',  ( -0.4500000000000001221, 0.2999999999999999889, 0.2500000000000000000 ) ) ;
#267 =( GEOMETRIC_REPRESENTATION_CONTEXT ( 3 ) GLOBAL_UNCERTAINTY_ASSIGNED_CONTEXT ( ( #263 ) ) GLOBAL_UNIT_ASSIGNED_CONTEXT ( ( #442, #128, #217 ) ) REPRESENTATION_CONTEXT ( 'NONE', 'WORKASPACE' ) );
#268 = EDGE_LOOP ( 'NONE', ( #179, #428, #104, #182 ) ) ;
#269 = VERTEX_POINT ( 'NONE', #160 ) ;
#270 = ADVANCED_FACE ( 'NONE', ( #232 ), #50, .F. ) ;
#271 = UNCERTAINTY_MEASURE_WITH_UNIT (LENGTH_MEASURE( 1.000000000000000082E-05 ), #336, 'distance_accuracy_value', 'NONE');
#272 =( GEOMETRIC_REPRESENTATION_CONTEXT ( 3 ) GLOBAL_UNCERTAINTY_ASSIGNED_CONTEXT ( ( #16 ) ) GLOBAL_UNIT_ASSIGNED_CONTEXT ( ( #279, #86, #82 ) ) REPRESENTATION_CONTEXT ( 'NONE', 'WORKASPACE' ) );
#273 = CARTESIAN_POINT ( 'NONE',  ( 0.000000000000000000, 0.3009999999999999898, 0.000000000000000000 ) ) ;
#274 =( LENGTH_UNIT ( ) NAMED_UNIT ( * ) SI_UNIT ( .MILLI., .METRE. ) );
#275 = LINE ( 'NONE', #306, #462 ) ;
#276 = LINE ( 'NONE', #97, #445 ) ;
#277 = AXIS2_PLACEMENT_3D ( 'NONE', #273, #415, #347 ) ;
#278 =( GEOMETRIC_REPRESENTATION_CONTEXT ( 3 ) GLOBAL_UNCERTAINTY_ASSIGNED_CONTEXT ( ( #271 ) ) GLOBAL_UNIT_ASSIGNED_CONTEXT ( ( #336, #345, #83 ) ) REPRESENTATION_CONTEXT ( 'NONE', 'WORKASPACE' ) );
#279 =( LENGTH_UNIT ( ) NAMED_UNIT ( * ) SI_UNIT ( .MILLI., .METRE. ) );
#280 = LINE ( 'NONE', #55, #385 ) ;
#281 = VECTOR ( 'NONE', #429, 1000.000000000000000 ) ;
#282 = VERTEX_POINT ( 'NONE', #178 ) ;
#283 = SURFACE_SIDE_STYLE ('',( #414 ) ) ;
#284 = ORIENTED_EDGE ( 'NONE', *, *, #77, .T. ) ;
#285 = EDGE_CURVE ( 'NONE', #269, #245, #463, .T. ) ;
#286 = APPLICATION_PROTOCOL_DEFINITION ( 'draft international standard', 'automotive_design', 1998, #299 ) ;
#287 =( NAMED_UNIT ( * ) PLANE_ANGLE_UNIT ( ) SI_UNIT ( $, .RADIAN. ) );
#288 = ORIENTED_EDGE ( 'NONE', *, *, #285, .T. ) ;
#289 = CARTESIAN_POINT ( 'NONE',  ( 0.000000000000000000, 0.000000000000000000, 0.000000000000000000 ) ) ;
#290 = CARTESIAN_POINT ( 'NONE',  ( 0.4499999999999998446, 0.2999999999999999889, 0.2500000000000000000 ) ) ;
#291 = ORIENTED_EDGE ( 'NONE', *, *, #12, .T. ) ;
#292 = STYLED_ITEM ( 'NONE', ( #134 ), #318 ) ;
#293 = VERTEX_POINT ( 'NONE', #452 ) ;
#294 =( NAMED_UNIT ( * ) SI_UNIT ( $, .STERADIAN. ) SOLID_ANGLE_UNIT ( ) );
#295 = CARTESIAN_POINT ( 'NONE',  ( -0.3500000000000001443, 0.3009999999999999898, -0.2500000000000000000 ) ) ;
#296 = VECTOR ( 'NONE', #2, 1000.000000000000000 ) ;
#297 = EDGE_CURVE ( 'NONE', #323, #422, #250, .T. ) ;
#298 = DIRECTION ( 'NONE',  ( -0.000000000000000000, -0.000000000000000000, 1.000000000000000000 ) ) ;
#299 = APPLICATION_CONTEXT ( 'automotive_design' ) ;
#300 = DIRECTION ( 'NONE',  ( 1.084202172485504434E-16, 0.000000000000000000, 1.000000000000000000 ) ) ;
#301 = FILL_AREA_STYLE ('',( #202 ) ) ;
#302 = CARTESIAN_POINT ( 'NONE',  ( -0.4500000000000001776, 0.2999999999999999889, -0.2500000000000000000 ) ) ;
#303 = LINE ( 'NONE', #295, #156 ) ;
#304 = MECHANICAL_DESIGN_GEOMETRIC_PRESENTATION_REPRESENTATION (  '', ( #174 ), #116 ) ;
#305 = EDGE_LOOP ( 'NONE', ( #288, #8, #359, #375 ) ) ;
#306 = CARTESIAN_POINT ( 'NONE',  ( -0.4500000000000001221, 0.2999999999999999889, 0.2500000000000000000 ) ) ;
#307 = PRESENTATION_STYLE_ASSIGNMENT (( #159 ) ) ;
#308 = UNCERTAINTY_MEASURE_WITH_UNIT (LENGTH_MEASURE( 1.000000000000000082E-05 ), #242, 'distance_accuracy_value', 'NONE');
#309 = AXIS2_PLACEMENT_3D ( 'NONE', #54, #350, #20 ) ;
#310 = PRESENTATION_STYLE_ASSIGNMENT (( #90 ) ) ;
#311 = SURFACE_STYLE_FILL_AREA ( #455 ) ;
#312 =( GEOMETRIC_REPRESENTATION_CONTEXT ( 3 ) GLOBAL_UNCERTAINTY_ASSIGNED_CONTEXT ( ( #403 ) ) GLOBAL_UNIT_ASSIGNED_CONTEXT ( ( #192, #331, #111 ) ) REPRESENTATION_CONTEXT ( 'NONE', 'WORKASPACE' ) );
#313 = DIRECTION ( 'NONE',  ( -0.000000000000000000, -1.000000000000000000, -0.000000000000000000 ) ) ;
#314 = ORIENTED_EDGE ( 'NONE', *, *, #205, .F. ) ;
#315 = DIRECTION ( 'NONE',  ( -0.000000000000000000, -0.000000000000000000, -1.000000000000000000 ) ) ;
#316 = COLOUR_RGB ( '',0.7529411764705882248, 0.7529411764705882248, 0.7529411764705882248 ) ;
#317 = VECTOR ( 'NONE', #39, 1000.000000000000000 ) ;
#318 = ADVANCED_FACE ( 'NONE', ( #328 ), #389, .F. ) ;
#319 = VERTEX_POINT ( 'NONE', #102 ) ;
#320 =( NAMED_UNIT ( * ) SI_UNIT ( $, .STERADIAN. ) SOLID_ANGLE_UNIT ( ) );
#321 = ORIENTED_EDGE ( 'NONE', *, *, #260, .T. ) ;
#322 = PRODUCT_CONTEXT ( 'NONE', #299, 'mechanical' ) ;
#323 = VERTEX_POINT ( 'NONE', #92 ) ;
#324 = ORIENTED_EDGE ( 'NONE', *, *, #28, .T. ) ;
#325 = CARTESIAN_POINT ( 'NONE',  ( -0.4500000000000001776, 0.000000000000000000, -0.2500000000000000000 ) ) ;
#326 = LINE ( 'NONE', #398, #93 ) ;
#327 = CARTESIAN_POINT ( 'NONE',  ( -0.2500000000000001665, 0.3009999999999999898, 0.2500000000000000000 ) ) ;
#328 = FACE_OUTER_BOUND ( 'NONE', #390, .T. ) ;
#329 = ADVANCED_FACE ( 'NONE', ( #459 ), #456, .T. ) ;
#330 = COLOUR_RGB ( '',0.7529411764705882248, 0.7529411764705882248, 0.7529411764705882248 ) ;
#331 =( NAMED_UNIT ( * ) PLANE_ANGLE_UNIT ( ) SI_UNIT ( $, .RADIAN. ) );
#332 = FACE_OUTER_BOUND ( 'NONE', #427, .T. ) ;
#333 = LINE ( 'NONE', #302, #231 ) ;
#334 = MECHANICAL_DESIGN_GEOMETRIC_PRESENTATION_REPRESENTATION (  '', ( #23 ), #152 ) ;
#335 = MECHANICAL_DESIGN_GEOMETRIC_PRESENTATION_REPRESENTATION (  '', ( #362 ), #278 ) ;
#336 =( LENGTH_UNIT ( ) NAMED_UNIT ( * ) SI_UNIT ( .MILLI., .METRE. ) );
#337 = ORIENTED_EDGE ( 'NONE', *, *, #112, .F. ) ;
#338 = FILL_AREA_STYLE ('',( #45 ) ) ;
#339 = VECTOR ( 'NONE', #107, 1000.000000000000000 ) ;
#340 =( GEOMETRIC_REPRESENTATION_CONTEXT ( 3 ) GLOBAL_UNCERTAINTY_ASSIGNED_CONTEXT ( ( #410 ) ) GLOBAL_UNIT_ASSIGNED_CONTEXT ( ( #187, #139, #294 ) ) REPRESENTATION_CONTEXT ( 'NONE', 'WORKASPACE' ) );
#341 = DIRECTION ( 'NONE',  ( -0.000000000000000000, -1.000000000000000000, -0.000000000000000000 ) ) ;
#342 = EDGE_CURVE ( 'NONE', #282, #218, #98, .T. ) ;
#343 = SURFACE_STYLE_USAGE ( .BOTH. , #204 ) ;
#344 = UNCERTAINTY_MEASURE_WITH_UNIT (LENGTH_MEASURE( 1.000000000000000082E-05 ), #122, 'distance_accuracy_value', 'NONE');
#345 =( NAMED_UNIT ( * ) PLANE_ANGLE_UNIT ( ) SI_UNIT ( $, .RADIAN. ) );
#346 = ADVANCED_FACE ( 'NONE', ( #155 ), #7, .F. ) ;
#347 = DIRECTION ( 'NONE',  ( 0.000000000000000000, -0.000000000000000000, -1.000000000000000000 ) ) ;
#348 = FILL_AREA_STYLE ('',( #207 ) ) ;
#349 = COLOUR_RGB ( '',0.7529411764705882248, 0.7529411764705882248, 0.7529411764705882248 ) ;
#350 = DIRECTION ( 'NONE',  ( 1.000000000000000000, 0.000000000000000000, -1.084202172485504434E-16 ) ) ;
#351 = SURFACE_SIDE_STYLE ('',( #211 ) ) ;
#352 = ORIENTED_EDGE ( 'NONE', *, *, #163, .T. ) ;
#353 = PRESENTATION_STYLE_ASSIGNMENT (( #206 ) ) ;
#354 = FILL_AREA_STYLE_COLOUR ( '', #180 ) ;
#355 = VERTEX_POINT ( 'NONE', #266 ) ;
#356 =( NAMED_UNIT ( * ) PLANE_ANGLE_UNIT ( ) SI_UNIT ( $, .RADIAN. ) );
#357 = PRESENTATION_LAYER_ASSIGNMENT (  '', '', ( #174 ) ) ;
#358 = CARTESIAN_POINT ( 'NONE',  ( 0.000000000000000000, 0.2999999999999999889, 0.000000000000000000 ) ) ;
#359 = ORIENTED_EDGE ( 'NONE', *, *, #96, .F. ) ;
#360 = EDGE_CURVE ( 'NONE', #319, #251, #230, .T. ) ;
#361 = ORIENTED_EDGE ( 'NONE', *, *, #399, .T. ) ;
#362 = STYLED_ITEM ( 'NONE', ( #3 ), #346 ) ;
#363 = ORIENTED_EDGE ( 'NONE', *, *, #96, .T. ) ;
#364 = CARTESIAN_POINT ( 'NONE',  ( -0.4500000000000001221, 0.2999999999999999889, 0.2500000000000000000 ) ) ;
#365 = DIRECTION ( 'NONE',  ( 1.000000000000000000, 0.000000000000000000, 0.000000000000000000 ) ) ;
#366 = SURFACE_STYLE_USAGE ( .BOTH. , #369 ) ;
#367 = DIRECTION ( 'NONE',  ( 0.000000000000000000, 0.000000000000000000, 1.000000000000000000 ) ) ;
#368 = ADVANCED_FACE ( 'NONE', ( #438 ), #81, .F. ) ;
#369 = SURFACE_SIDE_STYLE ('',( #436 ) ) ;
#370 = CARTESIAN_POINT ( 'NONE',  ( -0.3500000000000001443, 0.3009999999999999898, 0.2500000000000000000 ) ) ;
#371 = DIRECTION ( 'NONE',  ( -1.000000000000000000, -0.000000000000000000, -0.000000000000000000 ) ) ;
#372 = PRESENTATION_LAYER_ASSIGNMENT (  '', '', ( #391 ) ) ;
#373 = DIRECTION ( 'NONE',  ( -0.000000000000000000, -1.000000000000000000, -0.000000000000000000 ) ) ;
#374 = CARTESIAN_POINT ( 'NONE',  ( -0.2500000000000001665, 0.2999999999999999889, -0.2500000000000000000 ) ) ;
#375 = ORIENTED_EDGE ( 'NONE', *, *, #205, .T. ) ;
#376 = LINE ( 'NONE', #167, #426 ) ;
#377 = SURFACE_STYLE_USAGE ( .BOTH. , #432 ) ;
#378 = ADVANCED_BREP_SHAPE_REPRESENTATION ( 'DSN2', ( #144, #397 ), #340 ) ;
#379 = LINE ( 'NONE', #87, #417 ) ;
#380 = UNCERTAINTY_MEASURE_WITH_UNIT (LENGTH_MEASURE( 1.000000000000000082E-05 ), #154, 'distance_accuracy_value', 'NONE');
#381 = SURFACE_STYLE_FILL_AREA ( #348 ) ;
#382 = EDGE_CURVE ( 'NONE', #218, #251, #43, .T. ) ;
#383 = FILL_AREA_STYLE ('',( #440 ) ) ;
#384 = DIRECTION ( 'NONE',  ( -0.000000000000000000, -1.000000000000000000, -0.000000000000000000 ) ) ;
#385 = VECTOR ( 'NONE', #384, 1000.000000000000000 ) ;
#386 = SURFACE_SIDE_STYLE ('',( #176 ) ) ;
#387 = ORIENTED_EDGE ( 'NONE', *, *, #342, .F. ) ;
#388 = DIRECTION ( 'NONE',  ( 0.000000000000000000, 0.000000000000000000, 1.000000000000000000 ) ) ;
#389 = PLANE ( 'NONE',  #33 ) ;
#390 = EDGE_LOOP ( 'NONE', ( #100, #209, #408, #142 ) ) ;
#391 = STYLED_ITEM ( 'NONE', ( #310 ), #249 ) ;
#392 = ORIENTED_EDGE ( 'NONE', *, *, #112, .T. ) ;
#393 = SURFACE_STYLE_USAGE ( .BOTH. , #351 ) ;
#394 = VERTEX_POINT ( 'NONE', #431 ) ;
#395 = ORIENTED_EDGE ( 'NONE', *, *, #163, .F. ) ;
#396 = MECHANICAL_DESIGN_GEOMETRIC_PRESENTATION_REPRESENTATION (  '', ( #9 ), #312 ) ;
#397 = AXIS2_PLACEMENT_3D ( 'NONE', #289, #72, #108 ) ;
#398 = CARTESIAN_POINT ( 'NONE',  ( -0.4500000000000001776, 0.2999999999999999889, -0.2500000000000000000 ) ) ;
#399 = EDGE_CURVE ( 'NONE', #135, #420, #113, .T. ) ;
#400 = FACE_OUTER_BOUND ( 'NONE', #171, .T. ) ;
#401 = FILL_AREA_STYLE ('',( #119 ) ) ;
#402 = SURFACE_STYLE_FILL_AREA ( #114 ) ;
#403 = UNCERTAINTY_MEASURE_WITH_UNIT (LENGTH_MEASURE( 1.000000000000000082E-05 ), #192, 'distance_accuracy_value', 'NONE');
#404 = VECTOR ( 'NONE', #313, 1000.000000000000000 ) ;
#405 = DIRECTION ( 'NONE',  ( 0.000000000000000000, 0.000000000000000000, 1.000000000000000000 ) ) ;
#406 = LINE ( 'NONE', #261, #296 ) ;
#407 = ADVANCED_FACE ( 'NONE', ( #332 ), #434, .F. ) ;
#408 = ORIENTED_EDGE ( 'NONE', *, *, #285, .F. ) ;
#409 = CARTESIAN_POINT ( 'NONE',  ( -0.3500000000000001443, 0.2999999999999999889, 0.2500000000000000000 ) ) ;
#410 = UNCERTAINTY_MEASURE_WITH_UNIT (LENGTH_MEASURE( 1.000000000000000082E-05 ), #187, 'distance_accuracy_value', 'NONE');
#411 =( NAMED_UNIT ( * ) PLANE_ANGLE_UNIT ( ) SI_UNIT ( $, .RADIAN. ) );
#412 = VECTOR ( 'NONE', #341, 1000.000000000000000 ) ;
#413 = EDGE_CURVE ( 'NONE', #323, #135, #276, .T. ) ;
#414 = SURFACE_STYLE_FILL_AREA ( #421 ) ;
#415 = DIRECTION ( 'NONE',  ( 0.000000000000000000, -1.000000000000000000, 0.000000000000000000 ) ) ;
#416 = DIRECTION ( 'NONE',  ( 1.000000000000000000, 0.000000000000000000, 0.000000000000000000 ) ) ;
#417 = VECTOR ( 'NONE', #449, 1000.000000000000000 ) ;
#418 = STYLED_ITEM ( 'NONE', ( #353 ), #457 ) ;
#419 = SURFACE_STYLE_USAGE ( .BOTH. , #386 ) ;
#420 = VERTEX_POINT ( 'NONE', #240 ) ;
#421 = FILL_AREA_STYLE ('',( #115 ) ) ;
#422 = VERTEX_POINT ( 'NONE', #161 ) ;
#423 = ADVANCED_FACE ( 'NONE', ( #247 ), #130, .T. ) ;
#424 = DIRECTION ( 'NONE',  ( 1.000000000000000000, 0.000000000000000000, 0.000000000000000000 ) ) ;
#425 = CARTESIAN_POINT ( 'NONE',  ( 0.000000000000000000, 0.000000000000000000, 0.000000000000000000 ) ) ;
#426 = VECTOR ( 'NONE', #444, 1000.000000000000000 ) ;
#427 = EDGE_LOOP ( 'NONE', ( #248, #143, #439, #392 ) ) ;
#428 = ORIENTED_EDGE ( 'NONE', *, *, #399, .F. ) ;
#429 = DIRECTION ( 'NONE',  ( -0.000000000000000000, -1.000000000000000000, -0.000000000000000000 ) ) ;
#430 = PRESENTATION_LAYER_ASSIGNMENT (  '', '', ( #201 ) ) ;
#431 = CARTESIAN_POINT ( 'NONE',  ( -0.2500000000000001665, 0.2999999999999999889, 0.2500000000000000000 ) ) ;
#432 = SURFACE_SIDE_STYLE ('',( #198 ) ) ;
#433 = FILL_AREA_STYLE_COLOUR ( '', #169 ) ;
#434 = PLANE ( 'NONE',  #193 ) ;
#435 = COLOUR_RGB ( '',0.7529411764705882248, 0.7529411764705882248, 0.7529411764705882248 ) ;
#436 = SURFACE_STYLE_FILL_AREA ( #74 ) ;
#437 = AXIS2_PLACEMENT_3D ( 'NONE', #364, #35, #468 ) ;
#438 = FACE_OUTER_BOUND ( 'NONE', #67, .T. ) ;
#439 = ORIENTED_EDGE ( 'NONE', *, *, #127, .F. ) ;
#440 = FILL_AREA_STYLE_COLOUR ( '', #466 ) ;
#441 = CARTESIAN_POINT ( 'NONE',  ( -0.3500000000000001443, 0.3009999999999999898, -0.2500000000000000000 ) ) ;
#442 =( LENGTH_UNIT ( ) NAMED_UNIT ( * ) SI_UNIT ( .MILLI., .METRE. ) );
#443 = EDGE_CURVE ( 'NONE', #355, #245, #280, .T. ) ;
#444 = DIRECTION ( 'NONE',  ( -0.000000000000000000, -0.000000000000000000, 1.000000000000000000 ) ) ;
#445 = VECTOR ( 'NONE', #315, 1000.000000000000000 ) ;
#446 =( NAMED_UNIT ( * ) PLANE_ANGLE_UNIT ( ) SI_UNIT ( $, .RADIAN. ) );
#447 = MECHANICAL_DESIGN_GEOMETRIC_PRESENTATION_REPRESENTATION (  '', ( #195 ), #267 ) ;
#448 = DIRECTION ( 'NONE',  ( 0.000000000000000000, -0.000000000000000000, 1.000000000000000000 ) ) ;
#449 = DIRECTION ( 'NONE',  ( -0.000000000000000000, -1.000000000000000000, -0.000000000000000000 ) ) ;
#450 =( LENGTH_UNIT ( ) NAMED_UNIT ( * ) SI_UNIT ( .MILLI., .METRE. ) );
#451 = MECHANICAL_DESIGN_GEOMETRIC_PRESENTATION_REPRESENTATION (  '', ( #153 ), #132 ) ;
#452 = CARTESIAN_POINT ( 'NONE',  ( -0.2500000000000001665, 0.3009999999999999898, -0.2500000000000000000 ) ) ;
#453 = ORIENTED_EDGE ( 'NONE', *, *, #413, .T. ) ;
#454 = MECHANICAL_DESIGN_GEOMETRIC_PRESENTATION_REPRESENTATION (  '', ( #201 ), #257 ) ;
#455 = FILL_AREA_STYLE ('',( #210 ) ) ;
#456 = PLANE ( 'NONE',  #256 ) ;
#457 = ADVANCED_FACE ( 'NONE', ( #235 ), #168, .F. ) ;
#458 = ORIENTED_EDGE ( 'NONE', *, *, #233, .T. ) ;
#459 = FACE_OUTER_BOUND ( 'NONE', #255, .T. ) ;
#460 = ORIENTED_EDGE ( 'NONE', *, *, #124, .T. ) ;
#461 = EDGE_CURVE ( 'NONE', #420, #269, #185, .T. ) ;
#462 = VECTOR ( 'NONE', #416, 1000.000000000000000 ) ;
#463 = LINE ( 'NONE', #141, #63 ) ;
#464 = ORIENTED_EDGE ( 'NONE', *, *, #360, .F. ) ;
#465 = PRODUCT_DEFINITION_FORMATION_WITH_SPECIFIED_SOURCE ( 'ANY', '', #254, .NOT_KNOWN. ) ;
#466 = COLOUR_RGB ( '',0.7529411764705882248, 0.7529411764705882248, 0.7529411764705882248 ) ;
#467 = ORIENTED_EDGE ( 'NONE', *, *, #77, .F. ) ;
#468 = DIRECTION ( 'NONE',  ( -1.000000000000000000, 0.000000000000000000, -0.000000000000000000 ) ) ;
#469 = LINE ( 'NONE', #145, #73 ) ;
ENDSEC;
END-ISO-10303-21;
